<?xml version="1.0" encoding="UTF-8"?>
<svg width="1200pt" height="1200pt" version="1.1" viewBox="0 0 1200 1200" xmlns="http://www.w3.org/2000/svg">
 <path d="m600 1128.2c-141 0-273.8-55-373.4-154.8-99.801-99.598-154.8-232.4-154.8-373.4s55-273.8 154.8-373.4c99.598-99.801 232.4-154.8 373.4-154.8s273.8 55 373.4 154.8c99.801 99.801 154.8 232.4 154.8 373.4s-55 273.8-154.8 373.4c-99.797 99.602-232.4 154.8-373.4 154.8zm0-976.4c-247.2 0-448.2 201-448.2 448.2s201 448.2 448.2 448.2 448.2-201 448.2-448.2-201-448.2-448.2-448.2z"/>
 <path d="m983.2 552.2-56.398-56.398-309 308.6-40.602-40.598-42.199-42.199 308.6-308.8-56.402-56.402-308.8 308.6-42.199-42.199-40.598-40.602 308.6-309-56.398-56.398-308.8 308.8-42.398-42.203-51.602 192.6 190.6-51-51 190.4 190.4-51-51 190.6 192.6-51.602-42.203-42.398z"/>
</svg>
